# xmcd
#
# Track frame offsets: 
#        150
#        11808
#        31569
#        47856
#        59185
#        82186
#        95783
#        111451
#        131942
#        146451
#        163150
#        178298
#
# Disc length: 2607 seconds
#
# Revision: 0
# Processed by: cddbd v1.5.2PL0 Copyright (c) Steve Scherf et al.
# Submitted via: ExactAudioCopy v0.99pb3
#
DISCID=ba0a2d0c
DTITLE=Cedric Burnside Project - The Way I Am
DYEAR=2011
DGENRE=Blues
TTITLE0=Holly Springs
TTITLE1=Quicksand
TTITLE2=The Way I Am
TTITLE3=That Girl Is Bad
TTITLE4=I Don't Give A Damn
TTITLE5=Mellow Peaches
TTITLE6=The World Don't Owe You Nothing
TTITLE7=I'll See Y'all Again
TTITLE8=Big Mamma
TTITLE9=Firecracker
TTITLE10=Put It On Me
TTITLE11=Sweet Thang
EXTD=
EXTT0=
EXTT1=
EXTT2=
EXTT3=
EXTT4=
EXTT5=
EXTT6=
EXTT7=
EXTT8=
EXTT9=
EXTT10=
EXTT11=
PLAYORDER=
